<svg width="56" height="56" viewBox="0 0 56 56" fill="none" xmlns="http://www.w3.org/2000/svg">
<path fill-rule="evenodd" clip-rule="evenodd" d="M56 28C56 43.464 43.464 56 28 56C12.536 56 0 43.464 0 28C0 12.536 12.536 0 28 0C43.464 0 56 12.536 56 28ZM39.4183 19.359C39.897 18.8803 40.6729 18.8803 41.1515 19.359C41.6301 19.8376 41.6301 20.6135 41.1515 21.0921L25.6024 36.6412C25.1242 37.1194 24.3477 37.1198 23.8693 36.6412L17.359 30.131C16.8803 29.6524 16.8803 28.8765 17.359 28.3979C17.8376 27.9193 18.6135 27.9193 19.0921 28.3979L24.7358 34.0416L39.4183 19.359Z" fill="#33ABFF"/>
</svg>
