<svg width="350" height="566" viewBox="0 0 350 566" fill="none" xmlns="http://www.w3.org/2000/svg">
<path d="M349.729 154.375C349.729 201.139 329.688 245.333 289.604 286.958C283.438 293.125 275.729 300.576 266.479 309.312C257.743 317.535 250.292 324.986 244.125 331.667C238.472 337.833 233.59 344 229.479 350.167C222.799 361.472 218.688 370.979 217.146 378.687C215.604 386.396 214.833 398.729 214.833 415.687H116.938C116.938 376.632 124.389 344 139.292 317.792C145.458 305.972 152.396 295.951 160.104 287.729C168.326 278.993 178.861 269.486 191.708 259.208C204.556 248.931 215.861 238.653 225.625 228.375C243.097 208.847 251.833 184.951 251.833 156.687C251.833 139.215 247.722 124.826 239.5 113.521C225.625 96.0486 204.299 87.3125 175.521 87.3125C151.368 87.3125 132.868 92.9653 120.021 104.271C104.604 116.604 97.4097 134.076 98.4375 156.687H0.541669C6.70834 100.674 28.8056 59.3055 66.8333 32.5833C96.125 11 131.069 0.208322 171.667 0.208322C235.903 0.208322 283.438 18.9653 314.271 56.4791C337.91 83.2014 349.729 115.833 349.729 154.375ZM116.938 566V463.479H214.833V566H116.938Z" fill="white"/>
</svg>
