<svg width="91" height="106" viewBox="0 0 91 106" fill="none" xmlns="http://www.w3.org/2000/svg">
<path d="M45.132 32.8058C33.9952 32.8058 24.9351 41.8658 24.9351 53.0019C24.9351 64.1387 33.9952 73.1988 45.132 73.1988C56.268 73.1988 65.3281 64.1387 65.3281 53.0019C65.3281 41.8658 56.268 32.8058 45.132 32.8058ZM57.1228 49.1985L42.6541 63.6672C42.0468 64.2746 41.2502 64.5786 40.4544 64.5786C39.6586 64.5786 38.8628 64.2754 38.2555 63.6672L32.7263 58.138C31.5116 56.9241 31.5116 54.9549 32.7263 53.7402C33.9402 52.5255 35.9094 52.5255 37.1241 53.7402L40.4544 57.0705L52.725 44.8007C53.9389 43.586 55.9082 43.586 57.1228 44.8007C58.3375 46.0146 58.3375 47.9838 57.1228 49.1985Z" fill="#33ABFF"/>
<path d="M90.1595 28.7605L90.1562 28.678C90.1101 27.6598 90.0794 26.5826 90.0608 25.3841C89.9743 19.5395 85.3282 14.7051 79.4828 14.3783C67.2955 13.6982 57.8675 9.72418 49.8119 1.87238L49.7432 1.80687C47.1157 -0.60229 43.1521 -0.60229 40.5238 1.80687L40.4551 1.87238C32.3995 9.72418 22.9715 13.6982 10.7842 14.3791C4.93959 14.7051 0.292717 19.5395 0.206184 25.3849C0.188393 26.5754 0.156853 27.6526 0.110756 28.678L0.105904 28.8697C-0.131049 41.2972 -0.425421 56.7639 4.74873 70.8023C7.59379 78.5223 11.9026 85.233 17.5547 90.7493C23.9921 97.0314 32.4237 102.019 42.6152 105.572C42.9467 105.688 43.2912 105.782 43.6422 105.852C44.1372 105.951 44.6353 106 45.1335 106C45.6317 106 46.1306 105.951 46.6248 105.852C46.9757 105.782 47.3227 105.687 47.6559 105.571C57.8352 102.011 66.2579 97.0208 72.6896 90.7396C78.3393 85.2217 82.6481 78.5094 85.4956 70.7878C90.6892 56.7072 90.3956 41.2115 90.1595 28.7605ZM45.1319 79.4184C30.5653 79.4184 18.7152 67.5683 18.7152 53.0017C18.7152 38.4352 30.5653 26.5851 45.1319 26.5851C59.6976 26.5851 71.5485 38.4352 71.5485 53.0017C71.5485 67.5683 59.6976 79.4184 45.1319 79.4184Z" fill="#33ABFF"/>
</svg>
