<svg width="106" height="106" viewBox="0 0 106 106" fill="none" xmlns="http://www.w3.org/2000/svg">
<path d="M43.6836 56.1055H62.3164V62.3164H43.6836V56.1055Z" fill="#33ABFF"/>
<path d="M85.9964 62.3164H68.5273V65.4219C68.5273 67.138 67.138 68.5273 65.4219 68.5273H40.5781C38.862 68.5273 37.4727 67.138 37.4727 65.4219V62.3164H20.0036C15.9883 62.3164 12.4372 59.7568 11.1659 55.9478L0 22.4443V90.2656C0 95.4026 4.17944 99.582 9.31641 99.582H96.6836C101.821 99.582 106 95.4026 106 90.2656V22.4467L94.8333 55.9478C93.5628 59.7568 90.0117 62.3164 85.9964 62.3164V62.3164Z" fill="#33ABFF"/>
<path d="M65.4219 6.41797H40.5781C35.4412 6.41797 31.2617 10.5974 31.2617 15.7344V18.8398H5.3432L17.0558 53.9826C17.4804 55.2531 18.666 56.1055 20.0036 56.1055H37.4727V53C37.4727 51.2839 38.862 49.8945 40.5781 49.8945H65.4219C67.138 49.8945 68.5274 51.2839 68.5274 53V56.1055H85.9964C87.334 56.1055 88.5196 55.2531 88.9442 53.9826L100.658 18.8398H74.7383V15.7344C74.7383 10.5974 70.5589 6.41797 65.4219 6.41797V6.41797ZM37.4727 18.8398V15.7344C37.4727 14.0207 38.8645 12.6289 40.5781 12.6289H65.4219C67.1356 12.6289 68.5274 14.0207 68.5274 15.7344V18.8398H37.4727Z" fill="#33ABFF"/>
</svg>
