<svg width="106" height="106" viewBox="0 0 106 106" fill="none" xmlns="http://www.w3.org/2000/svg">
<path d="M106 94.6428V11.3571H92.75V94.6428H106ZM94.6429 22.7143H102.214V26.5H94.6429V22.7143ZM94.6429 30.2857H102.214V34.0714H94.6429V30.2857ZM94.6429 37.8571H102.214V41.6428H94.6429V37.8571ZM94.6429 45.4285H102.214V49.2143H94.6429V45.4285ZM94.6429 53H102.214V56.7857H94.6429V53ZM94.6429 60.5714H102.214V64.3571H94.6429V60.5714ZM94.6429 68.1428H102.214V71.9285H94.6429V68.1428ZM94.6429 75.7143H102.214V79.5H94.6429V75.7143Z" fill="#33ABFF"/>
<path d="M88.9643 106V0H17.0357V83.2857H39.75V106H88.9643ZM47.3214 98.4286H43.5357V94.6429H47.3214V98.4286ZM47.3214 90.8571H43.5357V87.0714H47.3214V90.8571ZM81.3929 98.4286H51.1071V94.6429H81.3929V98.4286ZM81.3929 90.8571H51.1071V87.0714H81.3929V90.8571ZM81.3929 68.1429H32.1786V64.3571H81.3929V68.1429ZM81.3929 60.5714H32.1786V56.7857H81.3929V60.5714ZM51.1071 7.57143H81.3929V11.3571H51.1071V7.57143ZM51.1071 15.1429H81.3929V18.9286H51.1071V15.1429ZM43.5357 7.57143H47.3214V11.3571H43.5357V7.57143ZM43.5357 15.1429H47.3214V18.9286H43.5357V15.1429ZM24.6071 22.7143H81.3929V45.4286H24.6071V22.7143ZM28.3928 75.7143H24.6071V71.9286H28.3928V75.7143ZM28.3928 68.1429H24.6071V64.3571H28.3928V68.1429ZM28.3928 60.5714H24.6071V56.7857H28.3928V60.5714ZM32.1786 75.7143V71.9286H81.3929V75.7143H32.1786Z" fill="#33ABFF"/>
<path d="M28.3929 26.5H77.6072V41.6429H28.3929V26.5Z" fill="#33ABFF"/>
<path d="M0 11.3571V94.6428H21.9305L13.25 85.9623V11.3571H0ZM11.3571 79.5H3.78571V75.7143H11.3571V79.5ZM11.3571 71.9285H3.78571V68.1428H11.3571V71.9285ZM11.3571 64.3571H3.78571V60.5714H11.3571V64.3571ZM11.3571 56.7857H3.78571V53H11.3571V56.7857ZM11.3571 49.2143H3.78571V45.4285H11.3571V49.2143ZM11.3571 41.6428H3.78571V37.8571H11.3571V41.6428ZM11.3571 34.0714H3.78571V30.2857H11.3571V34.0714ZM11.3571 26.5H3.78571V22.7143H11.3571V26.5Z" fill="#33ABFF"/>
<path d="M35.9643 87.0714H19.7123L35.9643 103.323V87.0714Z" fill="#33ABFF"/>
</svg>
